<svg width="25" height="25" viewBox="0 0 25 25" fill="none" xmlns="http://www.w3.org/2000/svg">
<g clip-path="url(#clip0_6_7)">
<rect width="25" height="25" transform="matrix(-1 0 0 1 25 0)" fill="#D9D9D9"/>
<path d="M0.305206 23.2219L6.52291 17.0042C4.82852 14.9319 3.99544 12.2876 4.19599 9.61828C4.39655 6.94898 5.6154 4.45887 7.60043 2.66303C9.58546 0.867185 12.1848 -0.0970007 14.8608 -0.0300926C17.5368 0.0368155 20.0847 1.1297 21.9775 3.0225C23.8703 4.9153 24.9632 7.46321 25.0301 10.1392C25.097 12.8152 24.1328 15.4145 22.337 17.3996C20.5411 19.3846 18.051 20.6034 15.3817 20.804C12.7124 21.0045 10.0681 20.1715 7.99583 18.4771L1.77812 24.6948C1.58166 24.8845 1.31854 24.9895 1.04541 24.9871C0.772293 24.9848 0.511029 24.8752 0.317896 24.6821C0.124763 24.489 0.0152108 24.2277 0.0128374 23.9546C0.0104641 23.6814 0.115458 23.4183 0.305206 23.2219ZM14.5833 18.75C16.2315 18.75 17.8427 18.2612 19.2131 17.3456C20.5835 16.4299 21.6516 15.1284 22.2823 13.6057C22.9131 12.083 23.0781 10.4074 22.7565 8.7909C22.435 7.17439 21.6413 5.68953 20.4759 4.5241C19.3105 3.35866 17.8256 2.56499 16.2091 2.24344C14.5926 1.9219 12.917 2.08693 11.3943 2.71766C9.87159 3.34839 8.5701 4.41649 7.65442 5.7869C6.73874 7.15731 6.25 8.76847 6.25 10.4167C6.25248 12.626 7.13125 14.7442 8.69352 16.3065C10.2558 17.8687 12.374 18.7475 14.5833 18.75Z" fill="#747373"/>
</g>
<defs>
<clipPath id="clip0_6_7">
<rect width="25" height="25" fill="white" transform="matrix(-1 0 0 1 25 0)"/>
</clipPath>
</defs>
</svg>
